<mxfile host="Electron" agent="Mozilla/5.0 (X11; Linux x86_64) AppleWebKit/537.36 (KHTML, like Gecko) draw.io/26.2.15 Chrome/134.0.6998.205 Electron/35.2.1 Safari/537.36" version="26.2.15">
  <diagram name="Страница — 1" id="Og2O6v1_8cmMjE4YKY-o">
    <mxGraphModel dx="679" dy="465" grid="1" gridSize="10" guides="1" tooltips="1" connect="1" arrows="1" fold="1" page="1" pageScale="1" pageWidth="827" pageHeight="1169" math="0" shadow="0">
      <root>
        <mxCell id="0" />
        <mxCell id="1" parent="0" />
        <mxCell id="f9OrkrOD7GsaYfjVP4bd-13" value="&lt;b&gt;&lt;font style=&quot;font-size: 14px;&quot;&gt;e0/1&lt;/font&gt;&lt;/b&gt;" style="text;html=1;align=center;verticalAlign=middle;whiteSpace=wrap;rounded=0;" parent="1" vertex="1">
          <mxGeometry x="453" y="343" width="60" height="30" as="geometry" />
        </mxCell>
        <mxCell id="2piaRRsvQxlYRXwN0LXb-4" value="&lt;b&gt;&lt;font style=&quot;font-size: 14px;&quot;&gt;e0/2&lt;/font&gt;&lt;/b&gt;" style="text;html=1;align=center;verticalAlign=middle;whiteSpace=wrap;rounded=0;" parent="1" vertex="1">
          <mxGeometry x="382" y="320" width="60" height="30" as="geometry" />
        </mxCell>
        <mxCell id="2piaRRsvQxlYRXwN0LXb-20" value="&lt;b&gt;&lt;font style=&quot;font-size: 14px;&quot;&gt;e0/0&lt;/font&gt;&lt;/b&gt;" style="text;html=1;align=center;verticalAlign=middle;whiteSpace=wrap;rounded=0;" parent="1" vertex="1">
          <mxGeometry x="402" y="343" width="60" height="30" as="geometry" />
        </mxCell>
        <mxCell id="2piaRRsvQxlYRXwN0LXb-21" value="&lt;b&gt;&lt;font style=&quot;font-size: 14px;&quot;&gt;e0/3&lt;/font&gt;&lt;/b&gt;" style="text;html=1;align=center;verticalAlign=middle;whiteSpace=wrap;rounded=0;" parent="1" vertex="1">
          <mxGeometry x="389" y="440.5" width="60" height="30" as="geometry" />
        </mxCell>
        <mxCell id="2piaRRsvQxlYRXwN0LXb-25" value="" style="endArrow=none;html=1;rounded=0;strokeWidth=3;" parent="1" edge="1">
          <mxGeometry width="50" height="50" relative="1" as="geometry">
            <mxPoint x="470" y="330" as="sourcePoint" />
            <mxPoint x="380" y="470" as="targetPoint" />
          </mxGeometry>
        </mxCell>
        <mxCell id="2piaRRsvQxlYRXwN0LXb-26" value="" style="endArrow=none;html=1;rounded=0;strokeWidth=3;" parent="1" edge="1">
          <mxGeometry width="50" height="50" relative="1" as="geometry">
            <mxPoint x="219" y="330" as="sourcePoint" />
            <mxPoint x="340" y="470" as="targetPoint" />
          </mxGeometry>
        </mxCell>
        <mxCell id="2piaRRsvQxlYRXwN0LXb-27" value="" style="endArrow=none;html=1;rounded=0;strokeWidth=3;" parent="1" edge="1">
          <mxGeometry width="50" height="50" relative="1" as="geometry">
            <mxPoint x="260" y="315" as="sourcePoint" />
            <mxPoint x="440" y="315" as="targetPoint" />
          </mxGeometry>
        </mxCell>
        <mxCell id="f9OrkrOD7GsaYfjVP4bd-12" value="&lt;b&gt;&lt;font style=&quot;font-size: 14px;&quot;&gt;e0/0&lt;/font&gt;&lt;/b&gt;" style="text;html=1;align=center;verticalAlign=middle;whiteSpace=wrap;rounded=0;" parent="1" vertex="1">
          <mxGeometry x="181" y="343" width="60" height="30" as="geometry" />
        </mxCell>
        <mxCell id="8hAFOE6kwnQCCH-C_sWi-5" value="" style="endArrow=none;html=1;rounded=0;strokeWidth=3;" parent="1" edge="1">
          <mxGeometry width="50" height="50" relative="1" as="geometry">
            <mxPoint x="260" y="324.8" as="sourcePoint" />
            <mxPoint x="440" y="324.8" as="targetPoint" />
          </mxGeometry>
        </mxCell>
        <mxCell id="8hAFOE6kwnQCCH-C_sWi-6" value="&lt;b&gt;&lt;font style=&quot;font-size: 14px;&quot;&gt;e0/3&lt;/font&gt;&lt;/b&gt;" style="text;html=1;align=center;verticalAlign=middle;whiteSpace=wrap;rounded=0;" parent="1" vertex="1">
          <mxGeometry x="395" y="290" width="60" height="30" as="geometry" />
        </mxCell>
        <mxCell id="8hAFOE6kwnQCCH-C_sWi-7" value="&lt;b&gt;&lt;font style=&quot;font-size: 14px;&quot;&gt;e0/3&lt;/font&gt;&lt;/b&gt;" style="text;html=1;align=center;verticalAlign=middle;whiteSpace=wrap;rounded=0;" parent="1" vertex="1">
          <mxGeometry x="260" y="290" width="60" height="30" as="geometry" />
        </mxCell>
        <mxCell id="8hAFOE6kwnQCCH-C_sWi-8" value="" style="endArrow=none;html=1;rounded=0;strokeWidth=3;" parent="1" edge="1">
          <mxGeometry width="50" height="50" relative="1" as="geometry">
            <mxPoint x="480" y="330" as="sourcePoint" />
            <mxPoint x="386" y="474" as="targetPoint" />
          </mxGeometry>
        </mxCell>
        <mxCell id="8hAFOE6kwnQCCH-C_sWi-9" value="" style="endArrow=none;html=1;rounded=0;strokeWidth=3;" parent="1" edge="1">
          <mxGeometry width="50" height="50" relative="1" as="geometry">
            <mxPoint x="212" y="335" as="sourcePoint" />
            <mxPoint x="333" y="475" as="targetPoint" />
          </mxGeometry>
        </mxCell>
        <mxCell id="2piaRRsvQxlYRXwN0LXb-1" value="" style="group" parent="1" vertex="1" connectable="0">
          <mxGeometry x="170" y="300" width="101" height="53" as="geometry" />
        </mxCell>
        <mxCell id="2piaRRsvQxlYRXwN0LXb-2" value="" style="shape=mxgraph.cisco.switches.workgroup_switch;sketch=0;html=1;pointerEvents=1;dashed=0;fillColor=#036897;strokeColor=#ffffff;strokeWidth=2;verticalLabelPosition=bottom;verticalAlign=top;align=center;outlineConnect=0;" parent="2piaRRsvQxlYRXwN0LXb-1" vertex="1">
          <mxGeometry width="101" height="50" as="geometry" />
        </mxCell>
        <mxCell id="2piaRRsvQxlYRXwN0LXb-3" value="&lt;b&gt;&lt;font color=&quot;#ffffff&quot; style=&quot;font-size: 14px;&quot;&gt;S1&lt;/font&gt;&lt;/b&gt;" style="text;html=1;align=center;verticalAlign=middle;whiteSpace=wrap;rounded=0;" parent="2piaRRsvQxlYRXwN0LXb-1" vertex="1">
          <mxGeometry x="10" y="23" width="60" height="30" as="geometry" />
        </mxCell>
        <mxCell id="8hAFOE6kwnQCCH-C_sWi-1" value="" style="group" parent="1" vertex="1" connectable="0">
          <mxGeometry x="300" y="441.5" width="101" height="53" as="geometry" />
        </mxCell>
        <mxCell id="8hAFOE6kwnQCCH-C_sWi-2" value="" style="shape=mxgraph.cisco.switches.workgroup_switch;sketch=0;html=1;pointerEvents=1;dashed=0;fillColor=#036897;strokeColor=#ffffff;strokeWidth=2;verticalLabelPosition=bottom;verticalAlign=top;align=center;outlineConnect=0;" parent="8hAFOE6kwnQCCH-C_sWi-1" vertex="1">
          <mxGeometry y="-1" width="101" height="50" as="geometry" />
        </mxCell>
        <mxCell id="8hAFOE6kwnQCCH-C_sWi-3" value="&lt;b&gt;&lt;font color=&quot;#ffffff&quot; style=&quot;font-size: 14px;&quot;&gt;S2&lt;/font&gt;&lt;/b&gt;" style="text;html=1;align=center;verticalAlign=middle;whiteSpace=wrap;rounded=0;" parent="8hAFOE6kwnQCCH-C_sWi-1" vertex="1">
          <mxGeometry x="10" y="23" width="60" height="30" as="geometry" />
        </mxCell>
        <mxCell id="8hAFOE6kwnQCCH-C_sWi-10" value="&lt;b&gt;&lt;font style=&quot;font-size: 14px;&quot;&gt;e0/2&lt;/font&gt;&lt;/b&gt;" style="text;html=1;align=center;verticalAlign=middle;whiteSpace=wrap;rounded=0;" parent="1" vertex="1">
          <mxGeometry x="251" y="320" width="60" height="30" as="geometry" />
        </mxCell>
        <mxCell id="8hAFOE6kwnQCCH-C_sWi-11" value="&lt;b&gt;&lt;font style=&quot;font-size: 14px;&quot;&gt;e0/2&lt;/font&gt;&lt;/b&gt;" style="text;html=1;align=center;verticalAlign=middle;whiteSpace=wrap;rounded=0;" parent="1" vertex="1">
          <mxGeometry x="354" y="416.5" width="60" height="30" as="geometry" />
        </mxCell>
        <mxCell id="8hAFOE6kwnQCCH-C_sWi-13" value="&lt;b&gt;&lt;font style=&quot;font-size: 14px;&quot;&gt;e0/0&lt;/font&gt;&lt;/b&gt;" style="text;html=1;align=center;verticalAlign=middle;whiteSpace=wrap;rounded=0;" parent="1" vertex="1">
          <mxGeometry x="263" y="437.5" width="60" height="30" as="geometry" />
        </mxCell>
        <mxCell id="8hAFOE6kwnQCCH-C_sWi-14" value="&lt;b&gt;&lt;font style=&quot;font-size: 14px;&quot;&gt;e0/1&lt;/font&gt;&lt;/b&gt;" style="text;html=1;align=center;verticalAlign=middle;whiteSpace=wrap;rounded=0;" parent="1" vertex="1">
          <mxGeometry x="233" y="339" width="60" height="30" as="geometry" />
        </mxCell>
        <mxCell id="8hAFOE6kwnQCCH-C_sWi-15" value="&lt;b&gt;&lt;font style=&quot;font-size: 14px;&quot;&gt;e0/1&lt;/font&gt;&lt;/b&gt;" style="text;html=1;align=center;verticalAlign=middle;whiteSpace=wrap;rounded=0;" parent="1" vertex="1">
          <mxGeometry x="302" y="417.5" width="60" height="30" as="geometry" />
        </mxCell>
        <mxCell id="8hAFOE6kwnQCCH-C_sWi-16" value="" style="group" parent="1" vertex="1" connectable="0">
          <mxGeometry x="428.5" y="300" width="101" height="53" as="geometry" />
        </mxCell>
        <mxCell id="f9OrkrOD7GsaYfjVP4bd-2" value="" style="shape=mxgraph.cisco.switches.workgroup_switch;sketch=0;html=1;pointerEvents=1;dashed=0;fillColor=#036897;strokeColor=#ffffff;strokeWidth=2;verticalLabelPosition=bottom;verticalAlign=top;align=center;outlineConnect=0;" parent="8hAFOE6kwnQCCH-C_sWi-16" vertex="1">
          <mxGeometry width="101" height="50" as="geometry" />
        </mxCell>
        <mxCell id="f9OrkrOD7GsaYfjVP4bd-8" value="&lt;b&gt;&lt;font color=&quot;#ffffff&quot; style=&quot;font-size: 14px;&quot;&gt;S3&lt;/font&gt;&lt;/b&gt;" style="text;html=1;align=center;verticalAlign=middle;whiteSpace=wrap;rounded=0;" parent="8hAFOE6kwnQCCH-C_sWi-16" vertex="1">
          <mxGeometry x="7.5" y="23" width="60" height="30" as="geometry" />
        </mxCell>
      </root>
    </mxGraphModel>
  </diagram>
</mxfile>
